<svg width="3044" height="5006" viewBox="0 0 3044 5006" fill="none" xmlns="http://www.w3.org/2000/svg">
<rect x="2" width="608.205" height="608.205" fill="black"/>
<rect x="1218.49" width="608.205" height="608.205" fill="black"/>
<rect x="1218.49" y="1223.38" width="608.205" height="608.205" fill="black"/>
<rect x="2434.81" width="608.205" height="608.205" fill="black"/>
<rect x="2" y="1216.42" width="608.205" height="608.205" fill="black"/>
<rect x="2" y="2429.32" width="608.205" height="608.205" fill="black"/>
<path d="M1218.49 2446.76H1826.69V3054.96H1218.49V2446.76Z" fill="black"/>
<path d="M1218.49 1223.76H1826.69V1831.96H1218.49V1223.76Z" fill="black"/>
<rect x="2434.81" y="1216.42" width="608.205" height="608.205" fill="black"/>
<rect x="2434.81" y="2446.76" width="608.205" height="608.205" fill="black"/>
<path d="M17.432 4116.79L329.834 3725.33H40.3161V3664.66H418.597V3723.95L104.461 4113.32H418.597V4174H17.432V4116.79ZM726.145 3898C758.506 3898 784.049 3891.53 802.772 3878.59C821.727 3865.64 831.204 3842.3 831.204 3808.55C831.204 3772.26 818.028 3747.52 791.677 3734.35C777.576 3727.41 758.738 3723.95 735.16 3723.95H566.65V3898H726.145ZM497.651 3664.66H733.426C772.26 3664.66 804.275 3670.32 829.47 3681.65C877.319 3703.37 901.243 3743.48 901.243 3801.96C901.243 3832.47 894.886 3857.44 882.173 3876.85C869.691 3896.27 852.123 3911.87 829.47 3923.66C849.349 3931.75 864.259 3942.39 874.198 3955.56C884.369 3968.74 890.032 3990.12 891.188 4019.71L893.615 4088.01C894.308 4107.43 895.926 4121.88 898.469 4131.35C902.63 4147.53 910.027 4157.93 920.66 4162.56V4174H836.058C833.746 4169.61 831.897 4163.94 830.51 4157.01C829.123 4150.08 827.968 4136.67 827.043 4116.79L822.882 4031.84C821.264 3998.56 808.898 3976.25 785.782 3964.92C772.607 3958.68 751.919 3955.56 723.718 3955.56H566.65V4174H497.651V3664.66ZM1222.31 3650.79C1312.23 3650.79 1378.8 3679.68 1422.03 3737.47C1455.78 3782.54 1472.65 3840.22 1472.65 3910.49C1472.65 3986.54 1453.35 4049.76 1414.75 4100.15C1369.44 4159.32 1304.83 4188.91 1220.93 4188.91C1142.57 4188.91 1080.96 4163.02 1036.12 4111.24C996.131 4061.31 976.136 3998.21 976.136 3921.93C976.136 3853.04 993.242 3794.1 1027.45 3745.1C1071.37 3682.22 1136.32 3650.79 1222.31 3650.79ZM1229.25 4127.19C1290.04 4127.19 1333.96 4105.46 1361 4062.01C1388.28 4018.32 1401.92 3968.16 1401.92 3911.53C1401.92 3851.66 1386.2 3803.46 1354.76 3766.94C1323.56 3730.42 1280.8 3712.16 1226.47 3712.16C1173.77 3712.16 1130.78 3730.3 1097.49 3766.59C1064.21 3802.65 1047.56 3855.93 1047.56 3926.44C1047.56 3982.84 1061.78 4030.45 1090.21 4069.29C1118.87 4107.89 1165.22 4127.19 1229.25 4127.19ZM1746.57 3879.97C1775.69 3879.97 1798.35 3875.93 1814.53 3867.84C1839.95 3855.13 1852.67 3832.24 1852.67 3799.19C1852.67 3765.9 1839.14 3743.48 1812.1 3731.92C1796.84 3725.45 1774.19 3722.21 1744.14 3722.21H1621.05V3879.97H1746.57ZM1769.8 4115.06C1812.1 4115.06 1842.26 4102.81 1860.29 4078.3C1871.62 4062.82 1877.28 4044.09 1877.28 4022.13C1877.28 3985.15 1860.76 3959.95 1827.7 3946.55C1810.13 3939.38 1786.9 3935.8 1758.01 3935.8H1621.05V4115.06H1769.8ZM1553.44 3664.66H1772.22C1831.86 3664.66 1874.28 3682.45 1899.47 3718.05C1914.27 3739.09 1921.66 3763.36 1921.66 3790.87C1921.66 3823 1912.53 3849.35 1894.27 3869.92C1884.8 3880.78 1871.16 3890.72 1853.36 3899.74C1879.48 3909.68 1899.01 3920.89 1911.96 3933.37C1934.84 3955.56 1946.28 3986.19 1946.28 4025.25C1946.28 4058.08 1936 4087.78 1915.42 4114.36C1884.68 4154.12 1835.79 4174 1768.76 4174H1553.44V3664.66ZM1989.28 3664.66H2069.72L2216.04 3909.45L2362.36 3664.66H2443.14L2250.71 3968.74V4174H2181.71V3968.74L1989.28 3664.66ZM2500.7 3664.66H2599.52L2745.84 4095.29L2891.12 3664.66H2988.9V4174H2923.36V3873.39C2923.36 3862.98 2923.59 3845.76 2924.06 3821.72C2924.52 3797.68 2924.75 3771.91 2924.75 3744.4L2779.47 4174H2711.17L2564.85 3744.4V3760.01C2564.85 3772.49 2565.08 3791.56 2565.54 3817.22C2566.23 3842.64 2566.58 3861.37 2566.58 3873.39V4174H2500.7V3664.66ZM93.7122 4892.18C93.7122 4910.21 100.3 4924.43 113.476 4934.83C126.651 4945.23 142.254 4950.43 160.284 4950.43C182.243 4950.43 203.51 4945.35 224.082 4935.18C258.755 4918.3 276.091 4890.68 276.091 4852.31V4802.03C268.463 4806.89 258.639 4810.93 246.619 4814.17C234.6 4817.4 222.811 4819.72 211.253 4821.1L173.46 4825.96C150.807 4828.96 133.817 4833.7 122.491 4840.17C103.305 4851.04 93.7122 4868.37 93.7122 4892.18ZM244.886 4765.97C259.217 4764.12 268.81 4758.11 273.664 4747.94C276.438 4742.4 277.825 4734.42 277.825 4724.02C277.825 4702.75 270.197 4687.38 254.941 4677.9C239.916 4668.2 218.303 4663.34 190.103 4663.34C157.51 4663.34 134.395 4672.13 120.757 4689.69C113.129 4699.4 108.159 4713.85 105.848 4733.03H47.5973C48.753 4687.27 63.5468 4655.48 91.9785 4637.68C120.641 4619.65 153.812 4610.64 191.49 4610.64C235.177 4610.64 270.659 4618.96 297.935 4635.6C324.98 4652.25 338.502 4678.14 338.502 4713.27V4927.2C338.502 4933.67 339.774 4938.88 342.316 4942.8C345.09 4946.73 350.754 4948.7 359.306 4948.7C362.08 4948.7 365.201 4948.58 368.668 4948.35C372.135 4947.89 375.834 4947.31 379.763 4946.62V4992.73C370.055 4995.51 362.658 4997.24 357.573 4997.93C352.487 4998.63 345.553 4998.97 336.769 4998.97C315.272 4998.97 299.669 4991.35 289.96 4976.09C284.875 4968 281.292 4956.56 279.212 4941.76C266.499 4958.41 248.237 4972.85 224.429 4985.11C200.62 4997.36 174.384 5003.48 145.721 5003.48C111.28 5003.48 83.0791 4993.08 61.1197 4972.28C39.3914 4951.24 28.5272 4925.01 28.5272 4893.57C28.5272 4859.13 39.2758 4832.43 60.7729 4813.48C82.2701 4794.52 110.471 4782.85 145.375 4778.46L244.886 4765.97ZM442.868 4619.65H502.158V4683.8C507.013 4671.32 518.917 4656.18 537.871 4638.38C556.826 4620.35 578.67 4611.33 603.403 4611.33C604.559 4611.33 606.524 4611.45 609.297 4611.68C612.071 4611.91 616.81 4612.37 623.513 4613.07V4678.94C619.815 4678.25 616.348 4677.79 613.111 4677.56C610.106 4677.33 606.755 4677.21 603.056 4677.21C571.62 4677.21 547.464 4687.38 530.59 4707.72C513.716 4727.83 505.279 4751.06 505.279 4777.42V4991H442.868V4619.65ZM820.802 4608.91C862.64 4608.91 896.62 4619.08 922.74 4639.42C949.091 4659.76 964.925 4694.78 970.242 4744.48H909.564C905.866 4721.59 897.429 4702.64 884.253 4687.61C871.078 4672.36 849.927 4664.73 820.802 4664.73C781.044 4664.73 752.612 4684.15 735.507 4722.98C724.411 4748.17 718.864 4779.26 718.864 4816.25C718.864 4853.46 726.723 4884.79 742.441 4910.21C758.16 4935.64 782.893 4948.35 816.641 4948.35C842.53 4948.35 862.987 4940.49 878.012 4924.77C893.268 4908.83 903.786 4887.1 909.564 4859.59H970.242C963.307 4908.83 945.971 4944.89 918.233 4967.77C890.494 4990.42 855.012 5001.75 811.787 5001.75C763.245 5001.75 724.527 4984.07 695.633 4948.7C666.739 4913.1 652.292 4868.72 652.292 4815.56C652.292 4750.37 668.126 4699.63 699.794 4663.34C731.461 4627.05 771.798 4608.91 820.802 4608.91ZM1032.65 4479.92H1095.06V4669.93C1109.86 4651.21 1123.15 4638.03 1134.94 4630.4C1155.05 4617.23 1180.13 4610.64 1210.18 4610.64C1264.04 4610.64 1300.56 4629.48 1319.74 4667.16C1330.15 4687.73 1335.35 4716.28 1335.35 4752.8V4991H1271.2V4756.96C1271.2 4729.68 1267.73 4709.69 1260.8 4696.97C1249.47 4676.63 1228.21 4666.46 1197 4666.46C1171.11 4666.46 1147.65 4675.36 1126.62 4693.16C1105.58 4710.96 1095.06 4744.59 1095.06 4794.06V4991H1032.65V4479.92ZM1427.92 4621.39H1491.37V4991H1427.92V4621.39ZM1427.92 4481.66H1491.37V4552.39H1427.92V4481.66ZM1598.51 4515.98H1661.62V4619.65H1720.91V4670.62H1661.62V4912.99C1661.62 4925.93 1666.01 4934.6 1674.79 4938.99C1679.65 4941.53 1687.74 4942.8 1699.07 4942.8C1702.07 4942.8 1705.31 4942.8 1708.77 4942.8C1712.24 4942.57 1716.29 4942.23 1720.91 4941.76V4991C1713.74 4993.08 1706.23 4994.58 1698.37 4995.51C1690.74 4996.43 1682.42 4996.89 1673.41 4996.89C1644.28 4996.89 1624.52 4989.5 1614.12 4974.7C1603.71 4959.68 1598.51 4940.26 1598.51 4916.45V4670.62H1548.24V4619.65H1598.51V4515.98ZM1938.31 4611.33C1964.66 4611.33 1990.2 4617.57 2014.93 4630.06C2039.67 4642.31 2058.51 4658.26 2071.45 4677.9C2083.93 4696.63 2092.26 4718.47 2096.42 4743.44C2100.11 4760.54 2101.96 4787.82 2101.96 4825.26H1829.78C1830.94 4862.94 1839.84 4893.22 1856.48 4916.11C1873.12 4938.76 1898.9 4950.09 1933.8 4950.09C1966.39 4950.09 1992.4 4939.34 2011.81 4917.84C2022.91 4905.36 2030.77 4890.91 2035.39 4874.5H2096.76C2095.14 4888.14 2089.71 4903.39 2080.47 4920.27C2071.45 4936.91 2061.28 4950.55 2049.95 4961.18C2031 4979.67 2007.54 4992.16 1979.57 4998.63C1964.54 5002.33 1947.55 5004.18 1928.6 5004.18C1882.37 5004.18 1843.19 4987.42 1811.06 4953.9C1778.93 4920.15 1762.86 4873 1762.86 4812.43C1762.86 4752.8 1779.04 4704.37 1811.41 4667.16C1843.77 4629.94 1886.07 4611.33 1938.31 4611.33ZM2037.82 4775.68C2035.28 4748.64 2029.38 4727.02 2020.14 4710.84C2003.03 4680.79 1974.48 4665.77 1934.49 4665.77C1905.83 4665.77 1881.79 4676.17 1862.37 4696.97C1842.96 4717.55 1832.67 4743.78 1831.52 4775.68H2037.82ZM2322.14 4608.91C2363.97 4608.91 2397.95 4619.08 2424.07 4639.42C2450.43 4659.76 2466.26 4694.78 2471.58 4744.48H2410.9C2407.2 4721.59 2398.76 4702.64 2385.59 4687.61C2372.41 4672.36 2351.26 4664.73 2322.14 4664.73C2282.38 4664.73 2253.95 4684.15 2236.84 4722.98C2225.75 4748.17 2220.2 4779.26 2220.2 4816.25C2220.2 4853.46 2228.06 4884.79 2243.78 4910.21C2259.49 4935.64 2284.23 4948.35 2317.98 4948.35C2343.86 4948.35 2364.32 4940.49 2379.35 4924.77C2394.6 4908.83 2405.12 4887.1 2410.9 4859.59H2471.58C2464.64 4908.83 2447.31 4944.89 2419.57 4967.77C2391.83 4990.42 2356.35 5001.75 2313.12 5001.75C2264.58 5001.75 2225.86 4984.07 2196.97 4948.7C2168.07 4913.1 2153.63 4868.72 2153.63 4815.56C2153.63 4750.37 2169.46 4699.63 2201.13 4663.34C2232.8 4627.05 2273.13 4608.91 2322.14 4608.91ZM2546.47 4515.98H2609.57V4619.65H2668.86V4670.62H2609.57V4912.99C2609.57 4925.93 2613.97 4934.6 2622.75 4938.99C2627.6 4941.53 2635.69 4942.8 2647.02 4942.8C2650.03 4942.8 2653.26 4942.8 2656.73 4942.8C2660.2 4942.57 2664.24 4942.23 2668.86 4941.76V4991C2661.7 4993.08 2654.19 4994.58 2646.33 4995.51C2638.7 4996.43 2630.38 4996.89 2621.36 4996.89C2592.24 4996.89 2572.47 4989.5 2562.07 4974.7C2551.67 4959.68 2546.47 4940.26 2546.47 4916.45V4670.62H2496.19V4619.65H2546.47V4515.98ZM2768.72 4874.5C2770.57 4895.3 2775.77 4911.25 2784.33 4922.35C2800.04 4942.46 2827.32 4952.51 2866.15 4952.51C2889.27 4952.51 2909.61 4947.54 2927.18 4937.6C2944.75 4927.43 2953.53 4911.83 2953.53 4890.8C2953.53 4874.85 2946.48 4862.71 2932.38 4854.39C2923.36 4849.3 2905.56 4843.41 2878.98 4836.71L2829.4 4824.22C2797.73 4816.36 2774.39 4807.58 2759.36 4797.87C2732.55 4781 2719.14 4757.65 2719.14 4727.83C2719.14 4692.7 2731.74 4664.27 2756.93 4642.54C2782.36 4620.81 2816.46 4609.95 2859.22 4609.95C2915.16 4609.95 2955.49 4626.36 2980.23 4659.18C2995.71 4679.98 3003.23 4702.41 3002.76 4726.45H2943.82C2942.66 4712.35 2937.69 4699.52 2928.91 4687.96C2914.58 4671.55 2889.73 4663.34 2854.36 4663.34C2830.79 4663.34 2812.87 4667.85 2800.62 4676.86C2788.6 4685.88 2782.59 4697.78 2782.59 4712.58C2782.59 4728.76 2790.57 4741.7 2806.52 4751.41C2815.76 4757.19 2829.4 4762.27 2847.43 4766.67L2888.69 4776.72C2933.53 4787.59 2963.58 4798.1 2978.84 4808.27C3003.11 4824.22 3015.25 4849.3 3015.25 4883.51C3015.25 4916.57 3002.65 4945.12 2977.45 4969.16C2952.49 4993.2 2914.35 5005.22 2863.03 5005.22C2807.79 5005.22 2768.61 4992.73 2745.49 4967.77C2722.61 4942.57 2710.36 4911.48 2708.74 4874.5H2768.72Z" fill="black"/>
</svg>
